<?xml version="1.0" encoding="UTF-8" standalone="no"?>
<svg
   xmlns:dc="http://purl.org/dc/elements/1.1/"
   xmlns:cc="http://creativecommons.org/ns#"
   xmlns:rdf="http://www.w3.org/1999/02/22-rdf-syntax-ns#"
   xmlns:svg="http://www.w3.org/2000/svg"
   xmlns="http://www.w3.org/2000/svg"
   xmlns:sodipodi="http://sodipodi.sourceforge.net/DTD/sodipodi-0.dtd"
   xmlns:inkscape="http://www.inkscape.org/namespaces/inkscape"
   width="104.37881"
   height="97.208481"
   viewBox="0 0 97.855538 91.133307"
   id="svg6430"
   version="1.1"
   inkscape:version="0.91 r13725"
   sodipodi:docname="Serial-tx-controller-icon.svg">
  <metadata
     id="metadata6448">
    <rdf:RDF>
      <cc:Work
         rdf:about="">
        <dc:format>image/svg+xml</dc:format>
        <dc:type
           rdf:resource="http://purl.org/dc/dcmitype/StillImage" />
        <dc:title></dc:title>
      </cc:Work>
    </rdf:RDF>
  </metadata>
  <defs
     id="defs6446">
    <marker
       inkscape:stockid="TriangleOutM"
       orient="auto"
       refY="0"
       refX="0"
       id="TriangleOutM"
       style="overflow:visible"
       inkscape:isstock="true">
      <path
         id="path4301"
         d="m 5.77,0 -8.65,5 0,-10 8.65,5 z"
         style="fill:#ff0000;fill-opacity:1;fill-rule:evenodd;stroke:#ff0000;stroke-width:1pt;stroke-opacity:1"
         transform="scale(0.4,0.4)"
         inkscape:connector-curvature="0" />
    </marker>
  </defs>
  <sodipodi:namedview
     pagecolor="#ffffff"
     bordercolor="#666666"
     borderopacity="1"
     objecttolerance="10"
     gridtolerance="10"
     guidetolerance="10"
     inkscape:pageopacity="0"
     inkscape:pageshadow="2"
     inkscape:window-width="1215"
     inkscape:window-height="1000"
     id="namedview6444"
     showgrid="false"
     inkscape:zoom="2.8269966"
     inkscape:cx="1.04501"
     inkscape:cy="90.246765"
     inkscape:window-x="88"
     inkscape:window-y="24"
     inkscape:window-maximized="1"
     inkscape:current-layer="svg6430"
     fit-margin-top="0"
     fit-margin-left="0"
     fit-margin-right="0"
     fit-margin-bottom="0" />
  <path
     style="fill:#ffaaaa;stroke:#000000;stroke-width:1"
     d="m 30.62958,60.216033 c -0.629609,-0.164619 -1.582486,-0.527987 -2.117499,-0.807485 -1.343762,-0.702007 -3.331848,-2.709229 -4.051276,-4.090282 l -0.555346,-1.066068 -1.712224,-0.04579 c -1.367939,-0.03659 -1.924839,-0.125106 -2.769643,-0.44026 -2.980061,-1.111707 -5.217141,-3.41498 -6.123256,-6.304433 -0.435609,-1.389091 -0.4602,-3.630342 -0.05472,-4.98689 0.15074,-0.504301 0.252246,-0.929546 0.225578,-0.944987 -2.13947,-1.238596 -4.0277443,-3.671452 -4.6904783,-6.043224 -0.326004,-1.16668 -0.260233,-3.508146 0.134103,-4.774392 0.582887,-1.871676 1.9331123,-3.800277 3.4784993,-4.968523 0.432254,-0.326766 0.502828,-0.451228 0.355994,-0.6278 -0.357609,-0.430023 -0.964029,-2.30144 -1.06162,-3.276163 -0.332408,-3.319966 2.195286,-6.876219 5.615462,-7.900477 l 0.900276,-0.269609 -0.0958,-1.028755 c -0.440694,-4.7321651 4.034542,-8.8843861 8.792141,-8.1575421 0.916676,0.140046 1.273813,0.144941 1.3162,0.01805 0.121834,-0.364774 1.286347,-1.712019 1.946322,-2.251735 0.909111,-0.743453 2.531677,-1.489029 3.62809,-1.667119 2.927228,-0.475465 6.380978,1.552322 7.888441,4.63151 l 0.604558,1.234902 0.04184,22.3637091 c 0.04499,24.04929 0.06101,23.500246 -0.749155,25.661272 -1.617839,4.315405 -6.535977,6.895271 -10.946478,5.742105 z m 21.797037,0.0765 C 49.503007,59.659205 46.700731,57.25748 45.666447,54.49865 44.840539,52.295644 44.864009,53.088753 44.908543,28.885256 l 0.0413,-22.4526451 0.61042,-1.232578 c 1.510276,-3.049586 4.937139,-5.091099 7.777899,-4.633583 1.119052,0.180226 2.07588,0.558816 3.099016,1.226191 0.86407,0.563621 2.163396,1.899997 2.444769,2.514488 0.154479,0.337367 0.221706,0.353815 0.959584,0.234808 0.436407,-0.07039 1.322844,-0.117668 1.969857,-0.105075 4.173793,0.08125 7.701355,4.046867 7.312651,8.2207501 l -0.09736,1.045466 0.509706,0.10569 c 1.982238,0.411018 4.256663,2.24809 5.22145,4.217415 0.781761,1.595722 0.988321,3.019498 0.658281,4.537317 -0.142026,0.653153 -0.441487,1.551682 -0.665474,1.996734 l -0.40725,0.809192 0.517824,0.390917 c 1.518432,1.146303 2.87198,3.082616 3.461535,4.951878 0.397368,1.259904 0.460147,3.58425 0.12895,4.774392 -0.57898,2.080559 -2.194049,4.349952 -3.926812,5.517713 -0.3929,0.264792 -0.736186,0.497669 -0.762859,0.517509 -0.02668,0.01984 0.07484,0.448688 0.225579,0.952989 0.405474,1.356548 0.380882,3.597799 -0.05473,4.98689 -0.901729,2.875476 -3.157607,5.198103 -6.123251,6.304433 -0.844805,0.315153 -1.401705,0.403677 -2.769649,0.44026 l -1.71222,0.04579 -0.555344,1.066067 c -0.71876,1.379762 -2.707603,3.388328 -4.048824,4.088976 -1.959989,1.023881 -4.20208,1.339098 -6.296993,0.88529 z"
     id="path4264-5"
     inkscape:connector-curvature="0"
     sodipodi:nodetypes="csscsssscssscsscsscssscsscccsscsssscsscsssscsssscsssscsscc" />
  <text
     y="75.221931"
     x="15.913339"
     style="font-weight:400;font-size:29.89880753px;line-height:125%;font-family:sans-serif;letter-spacing:0;word-spacing:0;fill:#0000ff"
     font-weight="400"
     font-size="40.397"
     letter-spacing="0"
     word-spacing="0"
     id="text6432-3"
     sodipodi:linespacing="125%">
    <tspan
       style="font-weight:700;font-size:17.08503342px;-inkscape-font-specification:'sans-serif Bold';fill:#0000ff"
       y="75.221931"
       x="15.913339"
       font-weight="700"
       font-size="23.084"
       id="tspan6434-6">Serial</tspan>
    <tspan
       style="font-weight:700;font-size:17.08503342px;-inkscape-font-specification:'sans-serif Bold';fill:#0000ff"
       y="75.221931"
       x="15.913339"
       font-weight="700"
       font-size="23.084"
       id="tspan4152" />
  </text>
  <text
     y="90.885902"
     x="-0.87020624"
     style="font-weight:400;font-size:17.47237587px;line-height:125%;font-family:sans-serif;letter-spacing:0;word-spacing:0;fill:#0000ff"
     font-weight="400"
     font-size="40.397"
     letter-spacing="0"
     word-spacing="0"
     id="text6432-3-3"
     sodipodi:linespacing="125%">
    <tspan
       style="font-style:normal;font-variant:normal;font-weight:bold;font-stretch:normal;font-family:sans-serif;-inkscape-font-specification:'sans-serif Bold';fill:#0000ff"
       id="tspan4181">Controller</tspan>
  </text>
  <path
     style="fill:#000000;stroke:#000000;stroke-width:1"
     d="M 30.486208,60.851717 C 29.8566,60.687098 28.903723,60.32373 28.36871,60.044232 27.024947,59.342224 25.036861,57.335002 24.317433,55.95395 l -0.555345,-1.066068 -1.712224,-0.04579 c -1.367939,-0.03659 -1.924839,-0.125107 -2.769644,-0.440261 -2.980061,-1.111707 -5.217141,-3.414979 -6.123256,-6.304433 -0.435609,-1.389091 -0.4602,-3.630342 -0.05472,-4.986889 0.15074,-0.504301 0.252246,-0.929546 0.225578,-0.944987 -2.13947,-1.238596 -4.0277443,-3.671453 -4.6904783,-6.043225 -0.326004,-1.166679 -0.260233,-3.508146 0.134103,-4.774392 0.582887,-1.871676 1.9331123,-3.800277 3.4784993,-4.968523 0.432254,-0.326766 0.502828,-0.451228 0.355994,-0.6278 -0.357609,-0.430023 -0.964029,-2.30144 -1.06162,-3.276163 -0.332408,-3.319966 2.195286,-6.876219 5.615462,-7.900477 l 0.900276,-0.269609 -0.0958,-1.028755 C 17.523564,8.5444129 21.998801,4.3921919 26.7564,5.1190359 c 0.916675,0.140046 1.273813,0.144941 1.316199,0.01805 0.121834,-0.364774 1.286347,-1.712019 1.946323,-2.251735 0.90911,-0.743453 2.531676,-1.489029 3.62809,-1.667119 2.927227,-0.475465 6.380977,1.552322 7.88844,4.63151 l 0.604559,1.234902 0.04184,22.3637101 c 0.04499,24.04929 0.06101,23.500246 -0.749156,25.661272 -1.617839,4.315404 -6.535976,6.895271 -10.946477,5.742104 z m 4.124928,-2.400848 c 2.449201,-0.652923 4.235892,-2.498227 4.822361,-4.980542 0.153206,-0.648454 0.196888,-5.869367 0.196888,-23.531254 l 0,-22.6979071 -0.460842,-0.830203 c -0.574532,-1.035015 -1.436652,-1.82314 -2.578941,-2.357585 -1.253414,-0.586438 -2.884688,-0.573258 -4.063138,0.03283 -1.099088,0.565264 -1.940884,1.458007 -2.573672,2.72943 -0.312183,0.627249 -0.685967,1.135442 -0.938661,1.276201 -0.386569,0.215336 -0.492385,0.203285 -1.333235,-0.151843 -1.355513,-0.572502 -3.240051,-0.552264 -4.464694,0.04794 -1.138868,0.558162 -2.040498,1.542747 -2.481461,2.7097701 -0.285555,0.755742 -0.338354,1.157969 -0.286448,2.182254 0.03704,0.731098 0.167717,1.450502 0.312757,1.721907 0.137018,0.256399 0.468954,0.934338 0.737635,1.50654 1.436127,3.058462 5.580679,4.901979 8.783766,3.907063 1.322306,-0.410722 2.309456,-1.084757 3.588059,-2.449951 0.873608,-0.932775 1.184203,-1.166911 1.547978,-1.166911 1.021016,0 1.554818,0.950249 1.064917,1.895716 -0.467165,0.901592 -2.431052,2.683979 -3.677543,3.337682 l -1.160643,0.608678 0.384497,0.236093 c 0.211475,0.12985 0.984836,0.840584 1.718579,1.579407 1.653673,1.665117 2.426824,3.034803 2.590626,4.589463 0.128879,1.223128 0.04072,1.316008 -1.088499,1.147009 -0.674528,-0.100957 -0.705156,-0.131853 -1.448952,-1.461584 -1.533001,-2.740671 -3.819104,-4.536806 -7.112339,-5.588002 -1.925013,-0.614459 -3.187755,-1.145344 -4.038237,-1.69776 -1.109141,-0.720417 -2.575851,-2.292622 -3.161101,-3.388458 l -0.516748,-0.967576 -0.651437,0.09961 c -0.9942,0.152013 -2.541582,0.960845 -3.075953,1.607826 -0.904209,1.09477 -1.165805,1.852357 -1.17485,3.402431 -0.0094,1.60491 0.247493,2.339635 1.222818,3.49776 0.902178,1.071263 0.724703,1.738285 -0.651792,2.449687 -1.061827,0.548775 -2.525358,1.947951 -2.991621,2.860072 -0.783841,1.533374 -0.997827,3.45141 -0.568555,5.096182 0.534129,2.046551 1.665073,3.403116 3.627369,4.351018 1.710121,0.826092 1.76935,1.009346 0.980652,3.034347 -0.504039,1.294141 -0.511622,3.642644 -0.0161,4.987305 1.239576,3.363729 4.820819,5.041273 8.590806,4.024145 0.693698,-0.187155 1.762346,-0.616426 2.374766,-0.953931 3.908395,-2.153904 5.068254,-5.598561 3.310217,-9.831024 -1.132836,-2.72729 -3.720341,-4.342218 -6.765021,-4.222217 -0.836939,0.03301 -0.958702,-0.0045 -1.297468,-0.397354 -0.475855,-0.552103 -0.474326,-1.064998 0.0048,-1.620733 0.366547,-0.425124 0.425721,-0.438796 1.845664,-0.4264 4.49891,0.03928 7.806252,2.714701 9.0789,7.344227 0.403797,1.468922 0.435187,3.640714 0.07219,4.994976 -0.729084,2.720026 -2.95537,5.28052 -5.854803,6.733709 -0.950716,0.4765 -0.95964,0.577612 -0.162242,1.839159 0.871527,1.378836 2.517061,2.58182 4.012847,2.933647 0.903344,0.212475 2.852205,0.190065 3.725866,-0.04286 z m 17.67211,2.477347 C 49.359635,60.294889 46.55736,57.893164 45.523076,55.134334 44.697167,52.931328 44.720638,53.724437 44.765172,29.52094 l 0.0413,-22.4526461 0.61042,-1.232578 c 1.510275,-3.049586 4.937139,-5.091099 7.777899,-4.633583 1.119052,0.180226 2.07588,0.558816 3.099016,1.226191 0.86407,0.563621 2.163396,1.899997 2.444769,2.514488 0.154479,0.337367 0.221705,0.353815 0.959584,0.234808 0.436407,-0.07039 1.322844,-0.117668 1.969856,-0.105075 4.173794,0.08125 7.701355,4.046867 7.312652,8.2207501 l -0.09736,1.045467 0.509707,0.105689 c 1.982238,0.411018 4.256663,2.24809 5.22145,4.217416 0.781761,1.595721 0.988321,3.019497 0.658281,4.537317 -0.142026,0.653152 -0.441488,1.551681 -0.665474,1.996734 l -0.40725,0.809191 0.517824,0.390918 c 1.518432,1.146303 2.87198,3.082615 3.461535,4.951877 0.397367,1.259904 0.460147,3.584251 0.12895,4.774392 -0.57898,2.080559 -2.194049,4.349952 -3.926812,5.517714 -0.3929,0.264791 -0.736186,0.497669 -0.762859,0.517508 -0.02668,0.01984 0.07484,0.448689 0.225578,0.95299 0.405475,1.356547 0.380883,3.597798 -0.05473,4.986889 -0.901729,2.875477 -3.157607,5.198104 -6.123251,6.304433 -0.844805,0.315154 -1.401705,0.403677 -2.769649,0.440261 l -1.71222,0.04579 -0.555344,1.066068 c -0.718761,1.379762 -2.707604,3.388328 -4.048824,4.088975 -1.95999,1.023882 -4.202081,1.339099 -6.296994,0.885291 z m 4.877602,-2.850486 c 1.880587,-0.878274 2.957127,-2.154586 3.728879,-4.420849 0.526765,-1.546863 0.785769,-1.705208 2.317461,-1.416776 1.384938,0.260796 3.112858,0.142228 4.264349,-0.292614 1.758965,-0.664245 3.273638,-2.262645 3.87092,-4.084902 0.335079,-1.022293 0.383869,-3.354593 0.09033,-4.317754 l -0.194789,-0.63913 -2.157722,-0.01644 c -2.260448,-0.01724 -3.943785,-0.26569 -5.658471,-0.835156 -0.891882,-0.296206 -1.11533,-0.312879 -2.144951,-0.160047 -0.632142,0.09383 -1.534624,0.314465 -2.005515,0.490293 -1.918146,0.71623 -3.663833,2.475594 -4.367566,4.401781 -0.373255,1.021634 -0.752945,1.389538 -1.434052,1.389538 -0.560874,0 -1.212783,-0.63269 -1.212783,-1.177028 0,-0.224714 0.15459,-0.773843 0.343536,-1.22028 1.155368,-2.729896 3.425724,-4.926054 6.033687,-5.836505 l 0.80899,-0.282418 -0.671711,-0.868479 c -0.946148,-1.223307 -1.411976,-2.08987 -1.888828,-3.513708 -0.738754,-2.205873 -0.733783,-5.714408 0.0092,-6.455855 0.472819,-0.471873 1.255776,-0.489393 1.736311,-0.03887 0.338328,0.31721 0.349086,0.407341 0.266261,2.23066 -0.06808,1.498693 -0.02995,2.115038 0.18051,2.917583 0.615187,2.345941 2.366349,4.569888 4.29808,5.458498 1.675059,0.770538 3.04585,1.013071 5.745552,1.016564 2.214753,0.0027 2.405847,-0.02127 3.257531,-0.41099 1.038276,-0.475125 2.429717,-1.782262 2.921689,-2.744679 1.037356,-2.029309 1.036419,-4.611313 -0.0022,-6.643511 -0.454224,-0.888578 -1.912799,-2.291995 -2.961348,-2.849364 -0.474474,-0.25222 -0.948666,-0.56891 -1.05376,-0.703771 -0.350631,-0.449939 -0.223748,-1.049574 0.371694,-1.756619 0.97533,-1.158129 1.232195,-1.892854 1.222823,-3.497765 -0.0091,-1.550073 -0.270641,-2.30766 -1.17485,-3.40243 -0.532425,-0.644625 -2.080991,-1.455778 -3.066441,-1.606223 l -0.641932,-0.098 -0.690931,1.066225 c -0.968513,1.494582 -2.681178,3.157098 -3.828718,3.716599 -1.2018,0.585964 -3.051607,0.718469 -4.688671,0.335862 -1.368076,-0.319749 -3.619961,-1.365087 -3.845102,-1.784922 -0.279926,-0.522 -0.197184,-1.111631 0.213515,-1.521506 0.486619,-0.485645 1.028641,-0.487001 1.861417,-0.0047 1.724742,0.998974 4.073439,1.322091 5.360884,0.737506 0.852953,-0.3873 1.97557,-1.510453 2.791043,-2.792391 1.10885,-1.743125 1.287096,-2.28015 1.287096,-3.877783 0,-1.228054 -0.05702,-1.52869 -0.436012,-2.298896 -0.502358,-1.0209181 -1.406589,-1.9001501 -2.446542,-2.3789111 -1.050056,-0.48341 -3.248796,-0.473719 -4.284798,0.0189 -0.405043,0.192596 -0.830481,0.35017 -0.945424,0.35017 -0.431538,0 -0.909512,-0.509984 -1.3617,-1.452889 -1.190753,-2.482969 -3.539201,-3.678089 -5.918395,-3.011856 -1.66284,0.465635 -3.252593,1.998539 -3.66752,3.536373 -0.251856,0.933442 -0.122893,45.3934311 0.134318,46.3062321 0.672111,2.385243 2.387024,4.129807 4.731008,4.812802 0.438535,0.127785 1.304877,0.187835 2.287693,0.158569 1.382894,-0.04116 1.711962,-0.107856 2.616222,-0.530163 z"
     id="path4264"
     inkscape:connector-curvature="0" />
</svg>
